<?xml version="1.0" standalone="no"?>
<!DOCTYPE svg PUBLIC "-//W3C//DTD SVG 20010904//EN"
 "http://www.w3.org/TR/2001/REC-SVG-20010904/DTD/svg10.dtd">
<svg version="1.0" xmlns="http://www.w3.org/2000/svg"
 width="512.000000pt" height="512.000000pt" viewBox="0 0 512.000000 512.000000"
 preserveAspectRatio="xMidYMid meet">

<g transform="translate(0.000000,512.000000) scale(0.100000,-0.100000)"
fill="#000000" stroke="none">
<path d="M1890 4633 c-249 -9 -488 -43 -626 -89 -318 -106 -582 -369 -687
-684 -77 -234 -97 -495 -97 -1300 0 -805 20 -1066 97 -1300 102 -306 368 -576
669 -678 238 -81 506 -102 1314 -102 927 0 1174 27 1435 154 253 124 460 362
549 630 32 97 60 250 78 422 18 182 18 1566 0 1748 -18 172 -46 325 -78 422
-89 268 -296 506 -549 630 -182 89 -367 126 -720 144 -166 9 -1179 11 -1385 3z
m1385 -323 c424 -24 591 -78 768 -249 241 -232 277 -428 277 -1501 0 -1073
-36 -1269 -277 -1501 -182 -176 -347 -227 -808 -250 -268 -14 -1403 -6 -1550
10 -317 35 -474 100 -626 258 -171 176 -225 345 -249 768 -13 233 -13 1197 0
1430 24 424 78 591 249 768 179 186 386 252 836 270 195 8 1223 5 1380 -3z"/>
<path d="M3565 3316 c-16 -7 -40 -24 -52 -37 -12 -13 -99 -180 -193 -371 -188
-382 -203 -403 -304 -433 -62 -19 -80 -19 -145 1 -74 22 -123 70 -178 178
-106 205 -287 319 -508 320 -167 1 -284 -45 -403 -157 l-75 -72 -182 -370
c-100 -203 -185 -383 -189 -398 -23 -99 83 -203 188 -183 72 14 89 40 273 413
150 304 179 357 215 388 103 88 253 81 344 -17 17 -18 51 -71 75 -118 126
-246 397 -367 665 -296 95 25 166 68 247 147 l78 77 181 369 c154 313 182 375
182 414 0 112 -118 190 -219 145z"/>
</g>
</svg>
