<?xml version="1.0" standalone="no"?>
<!DOCTYPE svg PUBLIC "-//W3C//DTD SVG 20010904//EN"
 "http://www.w3.org/TR/2001/REC-SVG-20010904/DTD/svg10.dtd">
<svg version="1.0" xmlns="http://www.w3.org/2000/svg"
 width="512.000000pt" height="512.000000pt" viewBox="0 0 512.000000 512.000000"
 preserveAspectRatio="xMidYMid meet">

<g transform="translate(0.000000,512.000000) scale(0.100000,-0.100000)"
fill="#000000" stroke="none">
<path d="M1985 4469 c-582 -79 -1046 -517 -1162 -1097 -12 -61 -17 -136 -17
-252 0 -178 14 -275 60 -417 55 -170 153 -342 274 -481 61 -71 200 -193 260
-229 32 -19 39 -33 16 -33 -27 0 -289 -110 -385 -162 -53 -29 -148 -87 -211
-129 -234 -156 -505 -418 -530 -510 -30 -110 72 -216 186 -194 33 6 61 29 174
144 74 75 177 169 228 209 762 588 1802 588 2564 0 51 -40 154 -134 228 -209
113 -115 141 -138 174 -144 114 -22 216 84 186 194 -11 43 -114 166 -225 270
-217 203 -513 388 -771 485 -54 21 -110 42 -123 47 -22 9 -19 12 50 61 263
185 469 510 536 846 24 120 24 384 0 504 -110 549 -536 977 -1080 1083 -99 20
-336 27 -432 14z m321 -320 c328 -45 628 -259 778 -554 320 -631 -62 -1387
-759 -1500 -510 -83 -1003 223 -1158 720 -150 481 74 1006 528 1233 191 96
401 130 611 101z"/>
<path d="M4415 3026 c-37 -17 -70 -52 -84 -89 -6 -16 -11 -103 -11 -202 l0
-174 -189 -3 c-207 -3 -216 -6 -265 -72 -29 -39 -29 -133 0 -172 49 -66 58
-69 264 -72 l189 -3 3 -189 c3 -206 6 -215 72 -264 39 -29 133 -29 172 0 66
49 69 58 72 264 l3 189 189 3 c206 3 215 6 264 72 29 39 29 133 0 172 -49 66
-58 69 -264 72 l-189 3 -3 189 c-3 206 -6 215 -70 263 -34 25 -113 32 -153 13z"/>
</g>
</svg>
