<?xml version="1.0" standalone="no"?>
<!DOCTYPE svg PUBLIC "-//W3C//DTD SVG 20010904//EN"
 "http://www.w3.org/TR/2001/REC-SVG-20010904/DTD/svg10.dtd">
<svg version="1.0" xmlns="http://www.w3.org/2000/svg"
 width="512.000000pt" height="512.000000pt" viewBox="0 0 512.000000 512.000000"
 preserveAspectRatio="xMidYMid meet">

<g transform="translate(0.000000,512.000000) scale(0.100000,-0.100000)"
fill="#000000" stroke="none">
<path d="M2425 4874 c-350 -27 -628 -100 -920 -243 -88 -43 -211 -112 -272
-153 l-111 -74 -4 107 c-2 90 -6 112 -24 135 -39 53 -71 69 -134 69 -63 0 -95
-16 -134 -69 -20 -26 -21 -41 -24 -422 l-3 -394 25 -25 c17 -17 36 -25 60 -25
30 0 47 13 153 118 357 353 727 548 1213 639 143 26 493 24 650 -5 336 -61
639 -192 895 -385 175 -133 172 -131 224 -131 115 0 191 113 147 217 -25 61
-222 214 -426 330 -267 153 -592 260 -895 296 -102 12 -345 21 -420 15z"/>
<path d="M1153 3480 c-29 -17 -85 -123 -433 -820 -282 -564 -400 -810 -400
-833 0 -48 39 -118 79 -141 50 -29 119 -26 168 6 31 21 50 49 108 167 l69 141
463 0 463 0 69 -139 c74 -147 107 -186 166 -197 100 -18 195 57 195 155 0 20
-135 300 -405 840 -349 699 -409 812 -434 826 -40 20 -69 19 -108 -5z m73
-608 c7 -4 73 -130 148 -279 l136 -273 -300 0 c-165 0 -300 2 -300 5 0 8 261
529 272 543 12 14 27 15 44 4z"/>
<path d="M3404 3481 c-113 -52 -118 -216 -8 -278 39 -22 43 -23 466 -23 234 0
433 -3 442 -6 9 -3 16 -13 16 -22 0 -9 -231 -248 -513 -532 -557 -559 -537
-534 -537 -647 0 -62 38 -142 86 -178 73 -56 69 -56 706 -53 577 3 587 3 615
24 98 73 98 195 0 268 -28 20 -42 21 -449 26 -401 5 -420 6 -434 24 -8 11 -14
29 -14 40 0 13 171 192 498 521 531 532 522 522 522 617 0 98 -81 203 -174
227 -31 7 -224 11 -613 11 -532 0 -571 -2 -609 -19z"/>
<path d="M2351 2618 c-60 -32 -83 -76 -79 -148 5 -67 27 -102 84 -130 38 -19
60 -20 328 -20 269 0 289 1 327 20 103 53 115 196 21 268 l-35 27 -301 3
c-298 3 -302 3 -345 -20z"/>
<path d="M4073 1209 c-208 -199 -362 -309 -588 -420 -295 -145 -600 -219 -905
-219 -110 0 -150 -4 -176 -16 -50 -24 -77 -68 -82 -133 -5 -70 22 -115 88
-149 43 -23 51 -24 205 -18 484 19 883 144 1267 398 l118 78 0 -98 c0 -82 4
-103 23 -137 24 -43 91 -85 137 -85 45 0 113 42 138 85 22 40 23 43 17 285
-10 440 -14 490 -41 517 -46 46 -73 35 -201 -88z"/>
<path d="M1012 1070 c-18 -11 -41 -34 -52 -52 -24 -39 -27 -116 -6 -157 47
-89 534 -401 627 -401 42 0 89 23 123 59 24 25 30 42 34 91 6 88 -20 123 -135
183 -105 54 -245 144 -326 210 -31 26 -72 56 -90 67 -44 27 -130 27 -175 0z"/>
</g>
</svg>
