<?xml version="1.0" standalone="no"?>
<!DOCTYPE svg PUBLIC "-//W3C//DTD SVG 20010904//EN"
 "http://www.w3.org/TR/2001/REC-SVG-20010904/DTD/svg10.dtd">
<svg version="1.0" xmlns="http://www.w3.org/2000/svg"
 width="512.000000pt" height="512.000000pt" viewBox="0 0 512.000000 512.000000"
 preserveAspectRatio="xMidYMid meet">

<g transform="translate(0.000000,512.000000) scale(0.100000,-0.100000)"
fill="#000000" stroke="none">
<path d="M2375 4629 c-319 -44 -601 -184 -830 -414 -205 -204 -329 -432 -398
-730 -20 -87 -21 -119 -24 -1078 -4 -1063 -4 -1076 48 -1230 174 -524 739
-815 1264 -650 321 101 588 375 674 693 39 141 42 241 39 1070 -4 709 -6 801
-21 850 -58 190 -199 339 -379 401 -86 29 -230 36 -320 15 -207 -48 -371 -206
-435 -416 -15 -49 -17 -135 -20 -755 l-4 -700 23 -45 c34 -66 79 -93 149 -88
65 5 109 32 133 82 14 30 16 107 16 703 0 739 -1 731 63 815 101 132 314 131
414 -1 66 -85 64 -62 61 -958 -4 -903 0 -850 -77 -1008 -83 -169 -220 -287
-406 -351 -71 -25 -94 -28 -210 -28 -114 0 -140 3 -210 27 -112 37 -198 90
-280 172 -81 82 -134 168 -173 280 l-27 80 -3 955 c-2 809 -1 970 12 1050 44
280 188 528 408 704 340 273 809 321 1201 125 303 -152 510 -420 595 -769 13
-56 17 -187 21 -922 6 -849 6 -857 27 -885 73 -98 195 -98 268 0 21 28 21 32
21 890 0 806 -1 868 -19 952 -63 301 -191 541 -401 750 -209 210 -459 344
-746 400 -100 20 -356 28 -454 14z"/>
</g>
</svg>
