<?xml version="1.0" standalone="no"?>
<!DOCTYPE svg PUBLIC "-//W3C//DTD SVG 20010904//EN"
 "http://www.w3.org/TR/2001/REC-SVG-20010904/DTD/svg10.dtd">
<svg version="1.0" xmlns="http://www.w3.org/2000/svg"
 width="512.000000pt" height="512.000000pt" viewBox="0 0 512.000000 512.000000"
 preserveAspectRatio="xMidYMid meet">

<g transform="translate(0.000000,512.000000) scale(0.100000,-0.100000)"
fill="#000000" stroke="none">
<path d="M2345 4629 c-393 -41 -793 -208 -1101 -460 -535 -437 -822 -1127
-754 -1810 73 -719 510 -1349 1155 -1665 493 -241 1045 -279 1565 -108 781
257 1337 951 1420 1773 78 778 -306 1554 -973 1968 -387 239 -862 349 -1312
302z m515 -336 c538 -86 1021 -446 1274 -950 308 -612 225 -1358 -210 -1894
-73 -90 -224 -234 -314 -301 -717 -528 -1701 -445 -2315 193 -139 145 -220
259 -309 436 -267 530 -242 1179 65 1688 238 395 631 686 1079 801 52 13 101
24 108 24 8 0 2 -20 -17 -57 -103 -206 -164 -520 -127 -662 62 -243 290 -399
530 -364 209 30 376 193 408 399 15 95 5 139 -41 185 -41 41 -88 55 -148 44
-50 -9 -109 -69 -117 -118 -3 -20 -9 -54 -12 -74 -8 -49 -67 -109 -117 -118
-60 -11 -107 3 -148 44 -50 49 -57 91 -36 211 28 167 92 332 181 470 l46 71
63 -6 c34 -4 105 -13 157 -22z"/>
<path d="M1760 2787 c-49 -16 -133 -102 -148 -153 -28 -94 -8 -169 63 -239
102 -103 243 -101 338 5 90 100 90 220 0 320 -65 72 -158 97 -253 67z"/>
<path d="M3200 2787 c-49 -16 -133 -102 -148 -153 -28 -94 -8 -169 63 -239
102 -103 243 -101 338 5 90 100 90 220 0 320 -65 72 -158 97 -253 67z"/>
<path d="M1965 1906 c-97 -43 -124 -171 -54 -250 38 -44 227 -138 340 -170
207 -59 387 -60 604 -6 106 27 314 130 354 175 96 110 5 282 -139 262 -21 -3
-65 -21 -97 -41 -140 -86 -338 -129 -500 -109 -112 14 -236 55 -321 106 -74
45 -137 56 -187 33z"/>
</g>
</svg>
