<?xml version="1.0" standalone="no"?>
<!DOCTYPE svg PUBLIC "-//W3C//DTD SVG 20010904//EN"
 "http://www.w3.org/TR/2001/REC-SVG-20010904/DTD/svg10.dtd">
<svg version="1.0" xmlns="http://www.w3.org/2000/svg"
 width="512.000000pt" height="512.000000pt" viewBox="0 0 512.000000 512.000000"
 preserveAspectRatio="xMidYMid meet">

<g transform="translate(0.000000,512.000000) scale(0.100000,-0.100000)"
fill="#000000" stroke="none">
<path d="M1840 4828 c-71 -48 -75 -61 -78 -247 l-3 -167 -121 -12 c-387 -39
-604 -134 -821 -361 -221 -232 -301 -470 -327 -980 -13 -258 -13 -1175 0
-1426 26 -500 104 -743 313 -971 209 -228 441 -331 847 -376 164 -19 1644 -18
1820 0 327 34 530 106 710 250 197 157 326 354 386 588 63 248 78 548 71 1379
-6 725 -17 875 -83 1102 -53 185 -145 334 -296 478 -200 192 -419 282 -770
316 l-127 13 -3 167 c-3 152 -5 170 -24 196 -73 98 -195 98 -268 0 -19 -26
-21 -45 -24 -190 l-3 -162 -479 0 -479 0 -3 162 c-3 145 -5 164 -24 190 -35
48 -82 73 -134 73 -32 0 -57 -7 -80 -22z m1148 -724 l52 -7 0 -39 c0 -89 72
-162 160 -162 87 0 160 73 160 160 l0 37 77 -7 c193 -18 356 -61 463 -123 37
-22 105 -78 156 -129 77 -77 99 -107 138 -185 53 -108 91 -258 102 -405 l7
-94 -1743 0 -1743 0 6 88 c7 95 37 252 61 320 9 24 32 76 53 115 47 90 189
235 283 290 107 62 270 105 463 123 l77 7 0 -37 c0 -87 73 -160 160 -160 88 0
160 73 160 163 0 39 1 40 38 44 64 6 814 7 870 1z m1332 -1753 l0 -479 -87 -6
c-361 -25 -628 -145 -857 -387 -213 -226 -336 -530 -336 -831 l0 -58 -557 0
c-699 0 -913 14 -1098 71 -200 61 -386 221 -472 406 -90 195 -113 441 -113
1256 l0 507 1760 0 1760 0 0 -479z m-20 -848 c0 -62 -26 -231 -47 -308 -68
-252 -268 -458 -518 -534 -69 -22 -193 -43 -314 -56 l-64 -6 6 93 c16 234 121
459 284 608 155 141 338 224 533 240 52 4 101 8 108 9 8 1 12 -14 12 -46z"/>
<path d="M1840 2268 c-48 -33 -72 -70 -77 -120 -7 -58 23 -118 74 -149 l38
-24 685 0 685 0 38 24 c51 31 81 91 74 149 -5 50 -29 87 -77 120 l-33 22 -687
0 -687 0 -33 -22z"/>
</g>
</svg>
