<?xml version="1.0" standalone="no"?>
<!DOCTYPE svg PUBLIC "-//W3C//DTD SVG 20010904//EN"
 "http://www.w3.org/TR/2001/REC-SVG-20010904/DTD/svg10.dtd">
<svg version="1.0" xmlns="http://www.w3.org/2000/svg"
 width="512.000000pt" height="512.000000pt" viewBox="0 0 512.000000 512.000000"
 preserveAspectRatio="xMidYMid meet">

<g transform="translate(0.000000,512.000000) scale(0.100000,-0.100000)"
fill="#000000" stroke="none">
<path d="M1235 4420 c-44 -4 -105 -14 -135 -23 -176 -52 -341 -227 -385 -408
-21 -89 -31 -439 -16 -596 17 -190 70 -305 187 -413 70 -63 198 -126 284 -140
104 -16 582 -12 665 5 218 46 394 222 440 440 17 84 21 561 5 665 -14 86 -77
214 -140 284 -105 114 -223 169 -397 186 -119 11 -383 11 -508 0z m570 -334
c59 -25 102 -62 132 -114 l28 -47 0 -295 c0 -329 -1 -332 -72 -403 -71 -71
-74 -72 -403 -72 l-295 0 -47 28 c-52 30 -88 72 -115 133 -15 34 -17 75 -18
299 0 296 6 330 66 399 75 85 134 96 469 91 171 -2 224 -6 255 -19z"/>
<path d="M3359 4420 c-154 -17 -280 -78 -379 -186 -63 -70 -126 -198 -140
-284 -16 -104 -12 -582 5 -665 46 -218 222 -394 440 -440 84 -17 561 -21 665
-5 86 14 214 77 284 140 163 150 205 311 192 740 -9 307 -37 391 -176 530 -84
84 -163 131 -261 155 -77 19 -497 29 -630 15z m576 -332 c23 -7 61 -33 91 -63
75 -74 79 -98 79 -410 -1 -224 -3 -265 -18 -299 -27 -61 -63 -103 -115 -133
l-47 -28 -295 0 c-329 0 -332 1 -403 72 -69 69 -72 80 -75 358 -4 304 0 340
41 402 46 68 111 105 200 114 109 11 495 2 542 -13z"/>
<path d="M1160 2279 c-76 -12 -208 -79 -274 -139 -163 -150 -205 -311 -192
-740 9 -307 37 -391 176 -530 139 -139 223 -167 530 -176 429 -13 590 29 740
192 63 70 126 198 140 284 16 104 12 581 -5 665 -46 218 -221 394 -440 440
-79 17 -577 19 -675 4z m661 -332 c47 -23 103 -79 126 -126 16 -32 18 -66 18
-331 l0 -295 -28 -47 c-30 -52 -72 -88 -133 -115 -34 -15 -75 -17 -299 -18
-312 0 -336 4 -410 79 -68 68 -76 100 -82 325 -7 251 5 366 43 428 33 53 94
101 145 113 19 5 158 8 309 7 243 -2 279 -4 311 -20z"/>
<path d="M3280 2274 c-215 -46 -389 -222 -435 -439 -17 -83 -21 -561 -5 -665
14 -86 77 -214 140 -284 150 -163 311 -205 740 -192 307 9 391 37 530 176 139
139 167 223 176 530 13 429 -29 590 -192 740 -70 63 -198 126 -284 140 -100
15 -591 11 -670 -6z m692 -337 c52 -30 88 -72 115 -133 15 -34 17 -75 18 -299
0 -312 -4 -336 -79 -411 -75 -75 -99 -79 -411 -79 -224 1 -265 3 -299 18 -61
27 -103 63 -133 115 l-28 47 -3 269 c-2 178 0 285 8 314 20 81 92 157 170 181
21 6 147 9 315 8 l280 -2 47 -28z"/>
</g>
</svg>
