<?xml version="1.0" standalone="no"?>
<!DOCTYPE svg PUBLIC "-//W3C//DTD SVG 20010904//EN"
 "http://www.w3.org/TR/2001/REC-SVG-20010904/DTD/svg10.dtd">
<svg version="1.0" xmlns="http://www.w3.org/2000/svg"
 width="512.000000pt" height="512.000000pt" viewBox="0 0 512.000000 512.000000"
 preserveAspectRatio="xMidYMid meet">

<g transform="translate(0.000000,512.000000) scale(0.100000,-0.100000)"
fill="#000000" stroke="none">
<path d="M1890 4633 c-249 -9 -488 -43 -626 -89 -318 -106 -582 -369 -687
-684 -77 -234 -97 -495 -97 -1300 0 -805 20 -1066 97 -1300 102 -306 368 -576
669 -678 238 -81 506 -102 1314 -102 927 0 1174 27 1435 154 253 124 460 362
549 630 32 97 60 250 78 422 18 182 18 1566 0 1748 -18 172 -46 325 -78 422
-89 268 -296 506 -549 630 -182 89 -367 126 -720 144 -166 9 -1179 11 -1385 3z
m1385 -323 c424 -24 591 -78 768 -249 241 -232 277 -428 277 -1501 0 -1073
-36 -1269 -277 -1501 -182 -176 -347 -227 -808 -250 -268 -14 -1403 -6 -1550
10 -317 35 -474 100 -626 258 -171 176 -225 345 -249 768 -13 233 -13 1197 0
1430 24 424 78 591 249 768 179 186 386 252 836 270 195 8 1223 5 1380 -3z"/>
<path d="M2507 3776 c-49 -18 -64 -32 -88 -77 -18 -37 -19 -72 -19 -1139 0
-1075 0 -1102 20 -1139 57 -113 223 -113 280 0 20 37 20 64 20 1139 0 1075 0
1102 -20 1139 -35 69 -121 103 -193 77z"/>
<path d="M3330 2908 c-19 -13 -45 -43 -57 -68 l-23 -44 0 -656 c0 -412 4 -669
10 -692 14 -49 76 -104 129 -113 53 -9 126 25 158 74 l23 34 0 684 c0 756 2
729 -63 775 -47 34 -132 36 -177 6z"/>
<path d="M1640 2488 c-25 -13 -55 -38 -67 -57 l-23 -34 0 -477 0 -477 23 -34
c32 -49 105 -83 158 -74 53 9 115 64 129 113 13 49 13 894 0 942 -17 62 -95
120 -160 120 -9 0 -36 -10 -60 -22z"/>
</g>
</svg>
