<?xml version="1.0" standalone="no"?>
<!DOCTYPE svg PUBLIC "-//W3C//DTD SVG 20010904//EN"
 "http://www.w3.org/TR/2001/REC-SVG-20010904/DTD/svg10.dtd">
<svg version="1.0" xmlns="http://www.w3.org/2000/svg"
 width="512.000000pt" height="512.000000pt" viewBox="0 0 512.000000 512.000000"
 preserveAspectRatio="xMidYMid meet">

<g transform="translate(0.000000,512.000000) scale(0.100000,-0.100000)"
fill="#000000" stroke="none">
<path d="M992 4193 c-62 -30 -96 -114 -78 -190 5 -19 226 -247 714 -735 l707
-708 -707 -708 c-488 -488 -709 -716 -714 -735 -10 -44 1 -112 24 -145 39 -54
138 -80 195 -51 12 6 338 327 724 712 l703 702 707 -707 c489 -488 717 -709
736 -714 44 -10 112 1 145 24 54 39 80 138 51 195 -6 12 -327 338 -712 724
l-702 703 707 707 c488 489 709 717 714 736 10 44 -1 112 -24 145 -39 54 -138
80 -195 51 -12 -6 -338 -327 -724 -713 l-703 -701 -702 701 c-387 386 -713
707 -725 713 -31 16 -103 13 -141 -6z"/>
</g>
</svg>
