<?xml version="1.0" standalone="no"?>
<!DOCTYPE svg PUBLIC "-//W3C//DTD SVG 20010904//EN"
 "http://www.w3.org/TR/2001/REC-SVG-20010904/DTD/svg10.dtd">
<svg version="1.0" xmlns="http://www.w3.org/2000/svg"
 width="512.000000pt" height="512.000000pt" viewBox="0 0 512.000000 512.000000"
 preserveAspectRatio="xMidYMid meet">

<g transform="translate(0.000000,512.000000) scale(0.100000,-0.100000)"
fill="#000000" stroke="none">
<path d="M2285 4675 c-536 -71 -1019 -339 -1377 -765 -147 -175 -295 -447
-372 -681 -75 -229 -106 -422 -106 -669 0 -247 31 -440 106 -669 105 -319 274
-592 518 -837 183 -182 348 -300 571 -410 588 -287 1287 -287 1870 0 440 217
788 571 996 1012 272 576 266 1263 -15 1839 -320 655 -959 1106 -1678 1184
-128 14 -388 12 -513 -4z m629 -345 c363 -78 670 -244 921 -495 252 -251 416
-558 497 -926 20 -92 22 -132 22 -349 0 -270 -10 -343 -76 -548 -178 -557
-613 -992 -1169 -1170 -204 -66 -280 -76 -544 -77 -213 0 -252 3 -350 23 -659
138 -1172 596 -1374 1225 -65 204 -75 278 -75 547 0 269 10 343 75 547 201
628 729 1099 1369 1222 155 30 148 29 385 26 179 -2 238 -7 319 -25z"/>
<path d="M2465 3521 c-51 -23 -78 -54 -106 -115 -39 -90 -6 -201 79 -261 40
-27 51 -30 121 -30 68 0 83 3 119 27 86 57 123 174 83 264 -41 92 -104 134
-201 134 -32 0 -71 -8 -95 -19z"/>
<path d="M2495 2821 c-28 -12 -76 -61 -86 -89 -5 -13 -9 -241 -9 -506 l0 -483
23 -33 c38 -57 71 -75 137 -75 66 0 99 18 138 75 l22 33 0 484 c0 535 1 530
-63 575 -33 24 -126 35 -162 19z"/>
</g>
</svg>
