<?xml version="1.0" standalone="no"?>
<!DOCTYPE svg PUBLIC "-//W3C//DTD SVG 20010904//EN"
 "http://www.w3.org/TR/2001/REC-SVG-20010904/DTD/svg10.dtd">
<svg version="1.0" xmlns="http://www.w3.org/2000/svg"
 width="512.000000pt" height="512.000000pt" viewBox="0 0 512.000000 512.000000"
 preserveAspectRatio="xMidYMid meet">

<g transform="translate(0.000000,512.000000) scale(0.100000,-0.100000)"
fill="#000000" stroke="none">
<path d="M2925 4679 c-245 -38 -492 -137 -689 -276 -107 -77 -286 -256 -363
-366 -115 -164 -206 -367 -251 -562 -49 -210 -51 -408 -6 -632 13 -67 24 -137
24 -155 0 -30 -50 -83 -591 -623 -325 -325 -597 -602 -605 -617 -11 -22 -14
-103 -14 -464 0 -426 1 -437 21 -474 12 -21 38 -47 59 -59 37 -20 48 -21 475
-21 299 0 443 3 458 11 12 6 292 280 622 609 427 427 608 601 629 606 19 4 75
-2 150 -17 168 -33 460 -34 612 -1 344 74 617 236 851 502 187 213 294 424
356 698 18 83 21 128 21 307 0 180 -3 225 -22 312 -133 613 -592 1072 -1204
1205 -107 23 -430 33 -533 17z m480 -343 c353 -77 655 -308 820 -627 98 -190
135 -344 135 -566 1 -265 -77 -501 -233 -709 -61 -80 -227 -240 -306 -293
-137 -94 -299 -158 -466 -188 -121 -21 -365 -13 -485 16 -139 34 -244 24 -355
-31 -25 -13 -255 -235 -625 -604 l-586 -584 -274 2 -275 3 -3 274 -2 275 583
585 c673 676 632 623 631 806 0 72 -6 130 -17 170 -31 110 -42 261 -29 388 54
516 424 946 922 1074 164 41 399 46 565 9z"/>
<path d="M3100 3388 c-25 -14 -58 -44 -75 -67 -27 -39 -30 -50 -30 -120 0 -68
3 -82 27 -117 15 -21 44 -50 65 -64 31 -21 48 -25 113 -25 65 0 82 4 113 25
21 14 50 43 65 64 24 35 27 49 27 116 0 67 -3 81 -27 116 -44 62 -90 88 -167
92 -55 3 -74 -1 -111 -20z"/>
</g>
</svg>
