<?xml version="1.0" standalone="no"?>
<!DOCTYPE svg PUBLIC "-//W3C//DTD SVG 20010904//EN"
 "http://www.w3.org/TR/2001/REC-SVG-20010904/DTD/svg10.dtd">
<svg version="1.0" xmlns="http://www.w3.org/2000/svg"
 width="512.000000pt" height="512.000000pt" viewBox="0 0 512.000000 512.000000"
 preserveAspectRatio="xMidYMid meet">

<g transform="translate(0.000000,512.000000) scale(0.100000,-0.100000)"
fill="#000000" stroke="none">
<path d="M2930 3989 c-30 -12 -1345 -1322 -1366 -1361 -18 -35 -18 -101 0
-136 23 -42 1337 -1350 1369 -1362 42 -15 83 -12 127 10 68 35 100 107 80 183
-10 37 -78 109 -608 640 l-597 597 597 598 c530 530 598 602 608 640 12 46 2
100 -25 140 -36 50 -125 75 -185 51z"/>
</g>
</svg>
