<?xml version="1.0" standalone="no"?>
<!DOCTYPE svg PUBLIC "-//W3C//DTD SVG 20010904//EN"
 "http://www.w3.org/TR/2001/REC-SVG-20010904/DTD/svg10.dtd">
<svg version="1.0" xmlns="http://www.w3.org/2000/svg"
 width="512.000000pt" height="512.000000pt" viewBox="0 0 512.000000 512.000000"
 preserveAspectRatio="xMidYMid meet">

<g transform="translate(0.000000,512.000000) scale(0.100000,-0.100000)"
fill="#000000" stroke="none">
<path d="M2345 4683 c-169 -20 -358 -64 -501 -114 -499 -176 -914 -549 -1089
-980 -103 -255 -134 -495 -100 -796 30 -267 85 -449 210 -698 242 -483 709
-1007 1317 -1477 225 -175 265 -193 401 -186 108 6 156 30 320 157 858 668
1393 1360 1526 1975 27 122 51 335 51 448 1 833 -696 1535 -1650 1664 -95 12
-404 17 -485 7z m381 -314 c709 -70 1276 -524 1398 -1119 35 -171 30 -382 -15
-602 -106 -526 -586 -1155 -1343 -1757 -71 -56 -146 -114 -167 -128 l-39 -26
-37 25 c-21 14 -106 79 -188 145 -746 596 -1218 1217 -1325 1741 -69 343 -42
628 85 889 270 553 950 900 1631 832z"/>
<path d="M2422 3415 c-273 -62 -467 -295 -466 -560 0 -159 53 -284 170 -401
116 -117 264 -178 434 -178 108 0 173 16 279 66 145 69 260 205 307 363 26 87
23 230 -6 315 -60 177 -211 325 -390 381 -85 27 -242 34 -328 14z m265 -331
c91 -43 147 -134 146 -236 -3 -234 -312 -346 -473 -172 -53 57 -72 104 -72
174 -2 200 209 323 399 234z"/>
</g>
</svg>
