<svg width="815" height="554" viewBox="0 0 815 554" fill="none" xmlns="http://www.w3.org/2000/svg">
<rect x="93.613" y="240.066" width="231.926" height="92.024" rx="46.012" transform="rotate(-45 93.613 240.066)" fill="#826AED"/>
<rect x="168.835" y="320.027" width="253.761" height="92.024" rx="46.012" transform="rotate(-45 168.835 320.027)" fill="#826AED"/>
<rect x="241.613" y="401.676" width="138.036" height="92.024" rx="46.012" transform="rotate(-45 241.613 401.676)" fill="#826AED"/>
<path d="M123.395 447.313C117.935 447.269 113.52 442.854 113.476 437.394L112.843 358.477C112.771 349.529 123.587 344.999 129.914 351.326L209.463 430.875C215.79 437.202 211.26 448.018 202.312 447.946L123.395 447.313Z" fill="black"/>
<path d="M531.617 261.365C531.617 269.568 530.113 275.925 527.106 280.437C524.098 284.812 520.133 288.025 515.211 290.076C510.289 292.126 504.684 293.357 498.395 293.767C492.106 294.041 485.68 294.177 479.117 294.177V464.802H452.867V110.427H479.117C492.242 110.427 502.359 111.521 509.469 113.709C516.578 115.896 521.774 118.63 525.055 121.912C528.336 125.193 530.25 128.748 530.797 132.576C531.344 136.404 531.617 139.959 531.617 143.24V261.365ZM505.367 143.24C505.367 139.959 504.889 137.429 503.932 135.652C503.111 133.875 501.676 132.576 499.625 131.755C497.574 130.935 494.84 130.457 491.422 130.32C488.141 130.183 484.039 130.115 479.117 130.115V274.49C482.399 274.49 485.611 274.421 488.756 274.285C491.901 274.148 494.703 273.669 497.164 272.849C499.625 272.029 501.608 270.73 503.111 268.953C504.615 267.175 505.367 264.646 505.367 261.365V143.24ZM623.492 464.802H597.242L593.961 379.49H574.479L570.992 464.802H544.742L564.43 110.427H603.805L623.492 464.802ZM590.68 281.052L584.117 123.552L577.555 281.052L574.479 359.802H593.961L590.68 281.052ZM721.93 431.99C721.52 439.373 719.879 445.935 717.008 451.677C715.777 454.138 714.205 456.599 712.291 459.06C710.377 461.384 708.053 463.435 705.318 465.212C702.584 467.126 699.303 468.63 695.475 469.724C691.783 470.818 687.477 471.365 682.555 471.365C677.633 471.365 673.258 470.818 669.43 469.724C665.738 468.63 662.526 467.126 659.791 465.212C657.057 463.435 654.733 461.384 652.818 459.06C650.904 456.599 649.332 454.138 648.102 451.677C645.231 445.935 643.59 439.373 643.18 431.99V294.177H669.43V431.99C669.43 433.63 669.498 435.613 669.635 437.937C669.772 440.125 670.25 442.244 671.07 444.294C671.891 446.345 673.19 448.123 674.967 449.626C676.744 450.994 679.274 451.677 682.555 451.677C685.836 451.677 688.365 450.994 690.143 449.626C691.92 448.123 693.219 446.345 694.039 444.294C694.859 442.244 695.338 440.125 695.475 437.937C695.611 435.613 695.68 433.63 695.68 431.99V110.427H721.93V431.99ZM807.242 130.115H774.43V267.927H800.68V287.615H774.43V445.115H807.242V464.802H748.18V110.427H807.242V130.115Z" fill="black"/>
</svg>
