<?xml version="1.0" standalone="no"?>
<!DOCTYPE svg PUBLIC "-//W3C//DTD SVG 20010904//EN"
 "http://www.w3.org/TR/2001/REC-SVG-20010904/DTD/svg10.dtd">
<svg version="1.0" xmlns="http://www.w3.org/2000/svg"
 width="512.000000pt" height="512.000000pt" viewBox="0 0 512.000000 512.000000"
 preserveAspectRatio="xMidYMid meet">

<g transform="translate(0.000000,512.000000) scale(0.100000,-0.100000)"
fill="#000000" stroke="none">
<path d="M2852 4676 c-95 -23 -201 -84 -277 -158 l-69 -68 -441 0 c-494 0
-525 -4 -654 -67 -105 -52 -213 -160 -263 -263 -54 -113 -63 -162 -63 -355 0
-189 6 -213 67 -256 48 -35 133 -38 177 -7 72 49 75 61 81 251 5 153 8 177 28
219 27 55 78 103 141 132 44 20 61 21 431 21 l385 0 0 -1565 0 -1565 -385 0
c-370 0 -387 1 -431 21 -63 29 -114 77 -141 132 -20 42 -23 66 -28 219 -6 190
-9 202 -81 251 -44 31 -129 28 -177 -7 -61 -43 -67 -67 -67 -256 0 -193 9
-242 63 -355 50 -103 158 -211 263 -263 129 -63 160 -67 654 -67 l441 0 69
-68 c77 -75 176 -130 280 -157 70 -18 207 -20 273 -4 43 11 927 330 1150 415
164 63 274 156 346 293 70 133 66 56 66 1411 0 1358 4 1277 -68 1414 -71 135
-180 227 -344 290 -223 85 -1107 404 -1150 415 -61 14 -209 13 -276 -3z m753
-511 c297 -108 566 -208 598 -222 64 -29 109 -74 141 -142 21 -46 21 -47 21
-1241 0 -1194 0 -1195 -21 -1241 -32 -68 -77 -113 -141 -142 -32 -14 -301
-114 -598 -223 -508 -186 -544 -198 -610 -198 -113 -1 -199 55 -247 159 l-23
50 0 1595 0 1595 23 50 c28 61 64 100 117 127 117 61 114 62 740 -167z"/>
<path d="M955 3135 c-38 -20 -491 -470 -511 -507 -18 -35 -18 -101 0 -136 22
-41 487 -499 519 -511 109 -41 227 36 227 148 0 58 -16 84 -115 181 l-85 85
488 5 489 5 35 27 c94 71 82 214 -22 269 -32 18 -67 19 -515 19 l-480 0 92 93
c50 50 96 102 102 114 29 57 1 155 -57 198 -35 26 -127 32 -167 10z"/>
</g>
</svg>
