<?xml version="1.0" standalone="no"?>
<!DOCTYPE svg PUBLIC "-//W3C//DTD SVG 20010904//EN"
 "http://www.w3.org/TR/2001/REC-SVG-20010904/DTD/svg10.dtd">
<svg version="1.0" xmlns="http://www.w3.org/2000/svg"
 width="512.000000pt" height="512.000000pt" viewBox="0 0 512.000000 512.000000"
 preserveAspectRatio="xMidYMid meet">

<g transform="translate(0.000000,512.000000) scale(0.100000,-0.100000)"
fill="#000000" stroke="none">
<path d="M2145 4259 c-510 -17 -1195 -62 -1281 -85 -201 -52 -368 -216 -419
-410 -22 -87 -23 -2320 0 -2407 51 -194 218 -359 419 -411 94 -25 771 -68
1359 -86 240 -8 434 -8 675 0 597 19 1263 61 1357 85 202 53 369 217 420 412
22 86 22 2320 0 2406 -51 195 -218 359 -420 412 -91 23 -752 66 -1335 85 -325
11 -421 11 -775 -1z m755 -309 c326 -10 720 -31 1062 -55 225 -16 273 -30 334
-97 54 -60 66 -98 68 -216 l1 -103 -860 -452 -860 -452 -85 0 -85 0 -860 452
-860 452 1 99 c1 118 14 162 66 218 64 70 109 83 341 99 472 33 968 57 1342
63 44 1 222 -3 395 -8z m-1373 -1232 c421 -221 795 -412 832 -426 46 -17 94
-26 161 -29 108 -6 184 6 270 40 33 14 399 203 814 421 415 218 757 396 761
396 3 0 4 -379 3 -842 -3 -937 1 -874 -72 -956 -61 -67 -109 -81 -334 -97
-980 -70 -1542 -76 -2407 -25 -650 39 -656 40 -731 122 -73 82 -69 19 -72 956
-1 463 0 842 4 842 4 0 351 -181 771 -402z"/>
</g>
</svg>
