<?xml version="1.0" standalone="no"?>
<!DOCTYPE svg PUBLIC "-//W3C//DTD SVG 20010904//EN"
 "http://www.w3.org/TR/2001/REC-SVG-20010904/DTD/svg10.dtd">
<svg version="1.0" xmlns="http://www.w3.org/2000/svg"
 width="512.000000pt" height="512.000000pt" viewBox="0 0 512.000000 512.000000"
 preserveAspectRatio="xMidYMid meet">

<g transform="translate(0.000000,512.000000) scale(0.100000,-0.100000)"
fill="#000000" stroke="none">
<path d="M2300 4674 c-590 -90 -1086 -469 -1294 -991 -75 -188 -186 -644 -250
-1029 -43 -255 -105 -709 -112 -819 -12 -171 43 -313 171 -440 126 -127 195
-154 505 -199 160 -24 579 -76 606 -76 7 0 13 -36 17 -98 12 -174 66 -301 178
-412 117 -118 269 -180 439 -180 170 0 322 62 439 180 111 111 166 238 177
410 l7 96 263 33 c351 42 566 77 641 102 181 60 338 237 378 426 20 93 19 130
-10 349 -82 633 -141 951 -245 1345 -61 231 -88 306 -157 441 -76 149 -160
265 -283 388 -259 258 -585 419 -961 474 -132 20 -379 19 -509 0z m495 -330
c186 -29 401 -115 565 -227 160 -111 341 -325 419 -499 87 -194 206 -698 280
-1183 46 -300 81 -582 81 -644 -1 -95 -58 -183 -146 -222 -64 -29 -505 -91
-910 -129 -425 -39 -687 -37 -1159 11 -320 32 -749 96 -798 117 -90 41 -146
126 -147 223 0 109 87 718 146 1024 57 291 150 647 200 768 62 150 189 327
311 434 319 280 723 394 1158 327z m43 -3325 c-8 -112 -78 -210 -176 -245 -47
-17 -157 -17 -204 0 -98 35 -168 133 -176 245 l-4 67 282 0 282 0 -4 -67z"/>
</g>
</svg>
