<?xml version="1.0" standalone="no"?>
<!DOCTYPE svg PUBLIC "-//W3C//DTD SVG 20010904//EN"
 "http://www.w3.org/TR/2001/REC-SVG-20010904/DTD/svg10.dtd">
<svg version="1.0" xmlns="http://www.w3.org/2000/svg"
 width="512.000000pt" height="512.000000pt" viewBox="0 0 512.000000 512.000000"
 preserveAspectRatio="xMidYMid meet">

<g transform="translate(0.000000,512.000000) scale(0.100000,-0.100000)"
fill="#000000" stroke="none">
<path d="M1310 4674 c-139 -36 -279 -135 -356 -251 -21 -31 -52 -96 -68 -143
l-31 -85 0 -1630 c0 -1553 1 -1633 18 -1689 68 -221 228 -377 442 -431 89 -23
2401 -23 2490 0 244 62 423 263 456 512 6 51 9 465 7 1198 -4 1253 2 1149 -76
1300 -38 73 -193 237 -844 897 -214 217 -239 239 -308 272 -143 68 -114 66
-935 65 -611 0 -750 -3 -795 -15z m1558 -333 c45 -20 125 -97 536 -516 356
-363 489 -505 507 -541 l24 -49 0 -1135 c0 -1135 0 -1135 -21 -1180 -25 -53
-82 -112 -130 -135 -19 -9 -60 -20 -92 -25 -76 -13 -2188 -13 -2264 0 -32 5
-73 16 -92 25 -48 23 -105 82 -130 135 l-21 45 0 1595 0 1595 21 45 c40 85
118 144 213 160 25 4 350 7 721 7 l675 -2 53 -24z"/>
<path d="M1840 2932 c-124 -56 -141 -215 -31 -289 46 -31 98 -35 466 -31 312
3 332 4 365 24 52 30 80 78 80 136 0 68 -24 114 -75 143 l-42 25 -374 -1
c-206 0 -381 -3 -389 -7z"/>
<path d="M1834 2051 c-131 -60 -129 -241 3 -297 48 -21 1398 -21 1446 0 132
56 134 237 3 297 -39 17 -81 19 -726 19 -645 0 -687 -2 -726 -19z"/>
</g>
</svg>
