<?xml version="1.0" standalone="no"?>
<!DOCTYPE svg PUBLIC "-//W3C//DTD SVG 20010904//EN"
 "http://www.w3.org/TR/2001/REC-SVG-20010904/DTD/svg10.dtd">
<svg version="1.0" xmlns="http://www.w3.org/2000/svg"
 width="512.000000pt" height="512.000000pt" viewBox="0 0 512.000000 512.000000"
 preserveAspectRatio="xMidYMid meet">

<g transform="translate(0.000000,512.000000) scale(0.100000,-0.100000)"
fill="#000000" stroke="none">
<path d="M3586 4674 c-78 -19 -171 -64 -243 -118 -32 -25 -671 -658 -1419
-1408 -1466 -1468 -1408 -1405 -1466 -1568 -23 -64 -23 -72 -26 -543 l-3 -479
25 -41 c14 -24 41 -52 65 -65 l40 -23 478 3 c469 3 479 4 543 26 163 58 97 -4
1591 1491 1495 1494 1433 1429 1490 1591 33 94 34 303 2 405 -42 131 -81 184
-313 416 -238 238 -283 270 -436 309 -92 24 -239 25 -328 4z m271 -365 c52
-19 78 -42 244 -208 168 -168 189 -192 209 -246 27 -74 24 -170 -8 -236 -14
-29 -111 -133 -289 -311 l-268 -268 -353 353 -352 352 277 277 c251 249 283
278 328 291 72 22 145 21 212 -4z m-1349 -2506 c-958 -956 -984 -982 -1037
-997 -45 -13 -112 -16 -368 -16 l-313 0 0 313 c0 256 3 323 16 368 15 53 41
79 997 1037 l982 982 352 -352 353 -353 -982 -982z"/>
</g>
</svg>
