<?xml version="1.0" standalone="no"?>
<!DOCTYPE svg PUBLIC "-//W3C//DTD SVG 20010904//EN"
 "http://www.w3.org/TR/2001/REC-SVG-20010904/DTD/svg10.dtd">
<svg version="1.0" xmlns="http://www.w3.org/2000/svg"
 width="512.000000pt" height="512.000000pt" viewBox="0 0 512.000000 512.000000"
 preserveAspectRatio="xMidYMid meet">

<g transform="translate(0.000000,512.000000) scale(0.100000,-0.100000)"
fill="#000000" stroke="none">
<path d="M2195 4683 c-472 -29 -779 -59 -857 -83 -188 -58 -344 -224 -392
-416 -25 -98 -68 -749 -87 -1302 -7 -230 -7 -414 0 -645 19 -552 62 -1203 87
-1301 48 -192 204 -358 391 -416 188 -58 1153 -107 1613 -81 305 17 695 50
775 67 214 43 396 217 449 430 25 96 67 745 86 1301 8 233 8 413 0 645 -19
557 -61 1206 -86 1302 -53 213 -235 387 -449 430 -72 15 -450 48 -745 66 -149
9 -659 11 -785 3z m625 -328 c308 -8 798 -47 868 -70 62 -20 117 -68 146 -128
22 -46 27 -77 41 -257 77 -1051 77 -1642 -1 -2680 -17 -226 -26 -262 -86 -322
-71 -71 -89 -74 -518 -108 -464 -37 -909 -41 -1293 -11 -332 27 -494 42 -532
52 -64 16 -129 70 -159 131 -22 47 -27 76 -41 258 -78 1054 -78 1626 0 2680
14 181 19 211 41 258 30 61 93 114 156 130 40 11 204 27 533 53 146 11 558 27
610 22 17 -1 122 -5 235 -8z"/>
<path d="M2460 3847 c-202 -107 -128 -407 100 -407 145 0 248 131 211 270 -25
96 -110 160 -211 160 -40 0 -70 -7 -100 -23z"/>
<path d="M2280 1619 c-107 -44 -137 -195 -53 -271 47 -43 81 -48 336 -48 232
0 245 1 287 23 117 60 126 200 16 281 -26 20 -42 21 -294 23 -164 1 -277 -2
-292 -8z"/>
</g>
</svg>
