<?xml version="1.0" standalone="no"?>
<!DOCTYPE svg PUBLIC "-//W3C//DTD SVG 20010904//EN"
 "http://www.w3.org/TR/2001/REC-SVG-20010904/DTD/svg10.dtd">
<svg version="1.0" xmlns="http://www.w3.org/2000/svg"
 width="512.000000pt" height="512.000000pt" viewBox="0 0 512.000000 512.000000"
 preserveAspectRatio="xMidYMid meet">

<g transform="translate(0.000000,512.000000) scale(0.100000,-0.100000)"
fill="#000000" stroke="none">
<path d="M2405 4683 c-137 -21 -312 -90 -432 -170 -32 -21 -95 -73 -140 -116
-424 -406 -425 -1066 -2 -1485 347 -344 917 -393 1321 -113 149 102 269 243
348 406 121 249 138 525 47 790 -92 268 -311 501 -577 614 -133 57 -210 72
-380 76 -85 2 -168 1 -185 -2z m376 -353 c301 -101 493 -367 491 -680 -1 -128
-17 -195 -78 -319 -38 -76 -61 -108 -129 -176 -68 -68 -100 -91 -176 -129
-126 -61 -200 -79 -329 -79 -130 0 -205 18 -330 80 -134 67 -239 172 -304 304
-61 124 -77 191 -78 319 -1 173 51 320 161 456 84 104 231 199 361 234 117 32
300 27 411 -10z"/>
<path d="M1881 2169 c-438 -51 -812 -352 -964 -776 -48 -133 -75 -337 -58
-441 32 -198 143 -295 445 -386 303 -92 703 -136 1251 -136 582 0 998 48 1306
150 267 89 357 169 396 354 23 109 -1 312 -54 459 -154 431 -526 725 -978 777
-108 12 -1237 11 -1344 -1z m1363 -334 c265 -46 485 -211 606 -452 43 -88 66
-166 80 -280 15 -118 8 -141 -54 -168 -182 -80 -479 -138 -845 -165 -183 -13
-763 -13 -941 0 -370 27 -661 84 -843 164 -45 20 -55 30 -60 56 -15 71 20 256
68 365 107 242 349 432 611 479 119 21 1255 22 1378 1z"/>
</g>
</svg>
