<?xml version="1.0" standalone="no"?>
<!DOCTYPE svg PUBLIC "-//W3C//DTD SVG 20010904//EN"
 "http://www.w3.org/TR/2001/REC-SVG-20010904/DTD/svg10.dtd">
<svg version="1.0" xmlns="http://www.w3.org/2000/svg"
 width="512.000000pt" height="512.000000pt" viewBox="0 0 512.000000 512.000000"
 preserveAspectRatio="xMidYMid meet">

<g transform="translate(0.000000,512.000000) scale(0.100000,-0.100000)"
fill="#000000" stroke="none">
<path d="M2111 4670 c-101 -37 -155 -90 -247 -242 -36 -59 -68 -109 -72 -112
-4 -2 -93 -12 -197 -21 -140 -12 -209 -23 -263 -41 -173 -57 -307 -187 -370
-356 -28 -74 -38 -163 -62 -523 -44 -669 -55 -1047 -40 -1415 16 -426 52 -914
76 -1017 32 -143 139 -291 265 -366 122 -72 174 -81 714 -124 306 -24 980 -24
1295 0 530 41 588 51 716 128 109 66 218 211 253 334 25 89 64 596 81 1058 8
210 8 376 0 610 -18 538 -61 1168 -86 1263 -35 136 -132 269 -249 343 -104 66
-184 87 -400 106 -104 9 -193 19 -197 21 -4 2 -36 53 -73 113 -77 126 -138
191 -215 229 l-55 27 -410 2 c-385 3 -413 2 -464 -17z m787 -313 c13 -6 59
-70 102 -142 85 -138 97 -180 63 -217 -15 -17 -44 -18 -501 -18 -543 0 -522
-3 -522 69 0 27 19 67 80 166 43 72 89 136 102 142 17 9 107 13 338 13 231 0
321 -4 338 -13z m-1173 -429 c36 -111 112 -199 214 -247 l56 -26 565 0 565 0
56 26 c101 48 178 136 213 244 l16 51 128 -12 c143 -13 190 -29 246 -82 77
-73 78 -80 116 -682 31 -497 41 -897 30 -1215 -16 -441 -53 -924 -76 -998 -20
-62 -89 -130 -151 -151 -49 -16 -366 -46 -695 -66 -336 -20 -757 -13 -1183 20
-408 32 -430 37 -499 106 -60 60 -72 104 -90 329 -66 810 -67 1213 -6 2140 28
422 34 448 106 517 56 53 102 69 244 83 69 7 126 13 127 14 1 0 9 -23 18 -51z"/>
<path d="M3186 2975 c-37 -13 -168 -143 -755 -748 l-95 -98 -186 185 c-102
102 -198 190 -213 196 -69 25 -155 -2 -198 -62 -31 -43 -38 -132 -14 -179 21
-40 475 -504 525 -536 40 -26 104 -30 153 -9 37 15 962 959 990 1009 21 38 22
118 3 155 -19 37 -55 68 -98 87 -45 18 -61 18 -112 0z"/>
</g>
</svg>
