<?xml version="1.0" standalone="no"?>
<!DOCTYPE svg PUBLIC "-//W3C//DTD SVG 20010904//EN"
 "http://www.w3.org/TR/2001/REC-SVG-20010904/DTD/svg10.dtd">
<svg version="1.0" xmlns="http://www.w3.org/2000/svg"
 width="512.000000pt" height="512.000000pt" viewBox="0 0 512.000000 512.000000"
 preserveAspectRatio="xMidYMid meet">

<g transform="translate(0.000000,512.000000) scale(0.100000,-0.100000)"
fill="#000000" stroke="none">
<path d="M2058 3980 c-66 -36 -97 -108 -78 -182 10 -38 78 -110 608 -640 l597
-598 -597 -597 c-530 -531 -598 -603 -608 -640 -20 -76 12 -148 80 -183 44
-22 85 -25 127 -10 32 12 1346 1320 1369 1362 8 15 14 45 14 68 0 23 -6 53
-14 68 -23 42 -1337 1350 -1369 1362 -42 15 -87 12 -129 -10z"/>
</g>
</svg>
