<?xml version="1.0" standalone="no"?>
<!DOCTYPE svg PUBLIC "-//W3C//DTD SVG 20010904//EN"
 "http://www.w3.org/TR/2001/REC-SVG-20010904/DTD/svg10.dtd">
<svg version="1.0" xmlns="http://www.w3.org/2000/svg"
 width="512.000000pt" height="512.000000pt" viewBox="0 0 512.000000 512.000000"
 preserveAspectRatio="xMidYMid meet">

<g transform="translate(0.000000,512.000000) scale(0.100000,-0.100000)"
fill="#000000" stroke="none">
<path d="M2138 4640 c-413 -44 -803 -224 -1102 -509 -386 -370 -602 -934 -557
-1460 38 -447 206 -827 506 -1140 307 -320 699 -512 1147 -560 452 -50 940 88
1299 365 l72 56 436 -435 c472 -472 457 -459 548 -442 49 9 109 69 118 118 17
91 30 76 -442 548 l-435 436 56 72 c236 306 376 720 376 1111 0 821 -546 1547
-1335 1776 -196 57 -491 84 -687 64z m476 -350 c308 -62 550 -193 777 -419
231 -231 366 -487 425 -806 26 -138 26 -392 0 -530 -59 -319 -195 -575 -425
-806 -231 -230 -487 -366 -806 -425 -135 -25 -402 -26 -530 -1 -639 125 -1107
593 -1232 1232 -25 128 -24 395 1 530 59 319 194 574 425 806 261 260 522 385
926 443 72 10 344 -4 439 -24z"/>
</g>
</svg>
