<?xml version="1.0" standalone="no"?>
<!DOCTYPE svg PUBLIC "-//W3C//DTD SVG 20010904//EN"
 "http://www.w3.org/TR/2001/REC-SVG-20010904/DTD/svg10.dtd">
<svg version="1.0" xmlns="http://www.w3.org/2000/svg"
 width="512.000000pt" height="512.000000pt" viewBox="0 0 512.000000 512.000000"
 preserveAspectRatio="xMidYMid meet">

<g transform="translate(0.000000,512.000000) scale(0.100000,-0.100000)"
fill="#000000" stroke="none">
<path d="M688 4677 c-101 -38 -176 -105 -224 -199 -21 -41 -28 -72 -32 -134
l-4 -81 283 -852 284 -851 -284 -851 -283 -852 4 -81 c7 -134 77 -240 200
-307 60 -32 68 -34 163 -34 l100 0 195 84 c973 416 1466 646 2045 954 550 292
1384 766 1442 820 24 22 58 69 76 106 30 61 32 73 32 166 0 95 -2 103 -34 163
-19 34 -52 79 -75 100 -55 51 -838 497 -1376 784 -552 295 -912 467 -1645 788
-632 276 -651 283 -745 287 -55 2 -98 -2 -122 -10z m473 -456 c1193 -515 1683
-760 2846 -1424 209 -119 355 -208 359 -219 3 -10 3 -26 0 -36 -8 -25 -759
-453 -1376 -784 -229 -123 -682 -347 -935 -463 -502 -230 -1230 -545 -1260
-545 -26 0 -45 18 -45 44 0 11 120 377 266 813 l267 793 459 0 c437 0 461 1
497 20 113 57 113 223 0 280 -36 19 -60 20 -497 20 l-459 0 -267 793 c-146
437 -266 802 -266 813 0 26 19 44 45 44 12 0 176 -67 366 -149z"/>
</g>
</svg>
