<?xml version="1.0" standalone="no"?>
<!DOCTYPE svg PUBLIC "-//W3C//DTD SVG 20010904//EN"
 "http://www.w3.org/TR/2001/REC-SVG-20010904/DTD/svg10.dtd">
<svg version="1.0" xmlns="http://www.w3.org/2000/svg"
 width="512.000000pt" height="512.000000pt" viewBox="0 0 512.000000 512.000000"
 preserveAspectRatio="xMidYMid meet">

<g transform="translate(0.000000,512.000000) scale(0.100000,-0.100000)"
fill="#000000" stroke="none">
<path d="M2088 4675 c-160 -40 -313 -163 -381 -305 -37 -77 -57 -162 -57 -237
0 -47 -5 -50 -35 -27 -30 22 -162 61 -235 68 -158 16 -348 -53 -464 -167 -50
-51 -94 -116 -235 -355 -94 -161 -183 -314 -196 -340 -54 -105 -70 -259 -40
-377 34 -128 132 -261 246 -332 33 -20 59 -39 59 -43 0 -4 -26 -23 -59 -43
-75 -47 -163 -142 -201 -218 -79 -156 -80 -345 -3 -494 14 -27 102 -180 196
-340 139 -236 183 -301 233 -352 116 -114 306 -183 464 -167 73 7 205 46 235
68 30 23 35 20 35 -27 0 -252 191 -483 446 -543 55 -12 136 -14 488 -12 410 4
423 4 483 27 225 83 383 296 383 518 l0 62 73 -35 c130 -61 247 -76 385 -48
120 24 213 74 296 158 61 62 97 116 254 385 101 171 193 338 204 369 13 36 22
93 25 152 6 111 -11 191 -60 285 -38 73 -143 181 -214 221 -29 16 -53 31 -53
34 0 3 24 18 53 34 71 40 176 148 214 221 49 94 66 174 60 285 -3 59 -12 116
-25 152 -11 31 -103 198 -204 369 -157 269 -193 323 -254 385 -84 85 -181 137
-299 159 -138 27 -253 12 -382 -49 l-73 -35 0 62 c0 222 -158 435 -383 518
-61 23 -71 23 -492 26 -342 1 -442 -1 -487 -12z m846 -329 c58 -18 107 -54
138 -103 21 -35 23 -51 28 -229 l5 -191 30 -49 c42 -67 105 -105 187 -111 69
-6 51 -13 331 136 66 34 87 41 135 41 68 0 124 -24 169 -71 31 -33 343 -553
369 -616 18 -43 18 -115 -2 -161 -25 -60 -71 -99 -208 -174 -71 -39 -141 -82
-156 -95 -89 -74 -92 -241 -7 -321 12 -11 81 -53 152 -93 141 -78 186 -114
216 -171 22 -44 25 -124 5 -171 -26 -63 -338 -583 -369 -616 -45 -47 -101 -71
-169 -71 -48 0 -69 7 -135 41 -280 149 -262 142 -331 136 -82 -6 -145 -44
-187 -111 l-30 -49 -5 -191 c-5 -178 -7 -194 -28 -229 -31 -49 -80 -85 -138
-103 -57 -17 -681 -20 -754 -3 -64 14 -114 51 -147 106 -27 47 -28 53 -33 233
-5 180 -6 186 -33 232 -47 81 -153 127 -247 107 -25 -5 -99 -40 -165 -78 -168
-95 -208 -106 -296 -79 -77 22 -108 63 -295 380 l-179 303 0 76 c0 111 21 139
177 230 183 106 195 116 225 160 52 79 40 210 -25 271 -15 14 -90 63 -167 107
-187 109 -220 150 -213 267 4 58 11 73 182 362 187 317 218 358 295 380 88 27
128 16 296 -79 66 -38 140 -73 165 -78 94 -20 200 26 247 107 27 46 28 52 33
232 5 180 6 186 33 232 32 56 74 88 136 104 70 19 702 19 765 0z"/>
<path d="M2425 3394 c-166 -27 -341 -111 -468 -224 -100 -89 -196 -241 -239
-380 -20 -65 -23 -95 -23 -235 0 -153 2 -164 31 -246 100 -280 311 -478 599
-561 68 -19 103 -23 235 -23 131 0 167 4 233 23 259 74 454 235 562 465 104
218 104 476 0 694 -107 228 -303 391 -557 464 -72 20 -299 34 -373 23z m295
-354 c111 -32 235 -128 297 -230 66 -108 84 -278 43 -399 -71 -212 -266 -352
-490 -352 -162 0 -275 44 -381 150 -103 103 -149 210 -149 351 0 344 335 580
680 480z"/>
</g>
</svg>
