<?xml version="1.0" standalone="no"?>
<!DOCTYPE svg PUBLIC "-//W3C//DTD SVG 20010904//EN"
 "http://www.w3.org/TR/2001/REC-SVG-20010904/DTD/svg10.dtd">
<svg version="1.0" xmlns="http://www.w3.org/2000/svg"
 width="512.000000pt" height="512.000000pt" viewBox="0 0 512.000000 512.000000"
 preserveAspectRatio="xMidYMid meet">

<g transform="translate(0.000000,512.000000) scale(0.100000,-0.100000)"
fill="#000000" stroke="none">
<path d="M2285 4675 c-536 -71 -1019 -339 -1377 -765 -147 -175 -295 -447
-372 -681 -75 -229 -106 -422 -106 -669 0 -247 31 -440 106 -669 105 -319 274
-592 518 -837 183 -182 348 -300 571 -410 588 -287 1287 -287 1870 0 440 217
788 571 996 1012 272 576 266 1263 -15 1839 -320 655 -959 1106 -1678 1184
-128 14 -388 12 -513 -4z m629 -345 c363 -78 670 -244 921 -495 252 -251 416
-558 497 -926 20 -92 22 -132 22 -349 0 -270 -10 -343 -76 -548 -178 -557
-613 -992 -1169 -1170 -204 -66 -280 -76 -544 -77 -213 0 -252 3 -350 23 -659
138 -1172 596 -1374 1225 -65 204 -75 278 -75 547 0 269 10 343 75 547 201
628 729 1099 1369 1222 155 30 148 29 385 26 179 -2 238 -7 319 -25z"/>
<path d="M1860 3428 c-99 -17 -171 -106 -171 -209 0 -67 10 -96 53 -144 131
-150 377 -60 378 138 0 141 -119 240 -260 215z"/>
<path d="M3205 3434 c-6 -1 -26 -5 -46 -8 -20 -4 -54 -22 -79 -43 -156 -134
-68 -383 135 -383 121 0 216 96 216 217 0 105 -71 193 -171 211 -25 5 -50 7
-55 6z"/>
<path d="M1830 2048 c-87 -47 -116 -159 -61 -236 27 -39 193 -151 284 -192
286 -129 693 -134 990 -10 96 40 277 158 307 200 56 79 28 190 -60 238 -66 35
-113 26 -215 -43 -183 -123 -275 -149 -515 -149 -240 0 -332 26 -515 149 -102
69 -149 78 -215 43z"/>
</g>
</svg>
