<?xml version="1.0" standalone="no"?>
<!DOCTYPE svg PUBLIC "-//W3C//DTD SVG 20010904//EN"
 "http://www.w3.org/TR/2001/REC-SVG-20010904/DTD/svg10.dtd">
<svg version="1.0" xmlns="http://www.w3.org/2000/svg"
 width="512.000000pt" height="512.000000pt" viewBox="0 0 512.000000 512.000000"
 preserveAspectRatio="xMidYMid meet">

<g transform="translate(0.000000,512.000000) scale(0.100000,-0.100000)"
fill="#000000" stroke="none">
<path d="M1050 4225 c-310 -64 -536 -275 -626 -585 -25 -89 -26 -307 0 -400
27 -101 91 -223 162 -311 36 -45 64 -82 62 -84 -2 -1 -32 -17 -68 -35 -157
-79 -380 -265 -465 -389 -38 -56 -43 -143 -9 -187 31 -42 67 -65 111 -71 68
-9 106 11 173 90 200 235 459 367 753 384 121 7 153 20 194 82 68 100 -15 241
-141 241 -210 0 -406 155 -461 365 -65 251 94 513 352 580 249 65 511 -95 578
-351 27 -105 75 -149 164 -149 73 0 121 33 147 100 15 40 15 53 4 103 -92 421
-515 702 -930 617z"/>
<path d="M3770 4225 c-314 -63 -561 -305 -630 -617 -11 -50 -11 -63 4 -103 26
-67 74 -100 147 -100 89 0 137 44 164 149 67 256 330 416 578 351 258 -67 417
-329 352 -580 -55 -210 -251 -365 -461 -365 -126 0 -209 -141 -141 -241 41
-62 73 -75 194 -82 302 -18 533 -138 768 -399 65 -72 99 -87 172 -73 49 9 109
69 118 118 13 65 -2 102 -74 189 -109 133 -248 246 -400 326 -47 25 -87 46
-89 48 -2 1 23 35 56 76 72 88 114 161 146 254 128 368 -25 771 -365 962 -156
88 -365 122 -539 87z"/>
<path d="M2393 3265 c-201 -36 -383 -134 -524 -283 -367 -383 -355 -982 25
-1351 42 -40 75 -75 74 -76 -2 -2 -30 -16 -64 -33 -246 -123 -501 -377 -623
-619 -38 -77 -41 -135 -9 -183 53 -77 130 -98 208 -58 38 19 53 37 93 108 127
222 289 376 510 481 316 149 661 144 982 -16 182 -90 357 -250 447 -406 79
-139 88 -150 135 -171 104 -46 210 16 220 129 4 41 0 60 -25 109 -127 251
-377 501 -626 626 -34 17 -62 31 -64 33 -1 1 32 36 74 76 127 124 217 277 266
458 31 110 31 352 0 462 -103 377 -397 649 -769 714 -102 18 -232 18 -330 0z
m302 -320 c287 -60 505 -329 505 -625 0 -297 -218 -565 -510 -626 -277 -58
-575 85 -699 337 -94 191 -94 387 0 579 126 255 420 395 704 335z"/>
</g>
</svg>
